<svg width="147" height="27" viewBox="0 0 147 27" fill="none" xmlns="http://www.w3.org/2000/svg">
<path d="M9.46801 26.712C8.07601 26.712 6.804 26.496 5.65201 26.064C4.50001 25.608 3.50401 24.948 2.664 24.084C1.82401 23.22 1.16401 22.188 0.684005 20.988C0.228005 19.764 4.94719e-06 18.396 4.94719e-06 16.884C4.94719e-06 14.964 0.384005 13.308 1.15201 11.916C1.94401 10.5 3.01201 9.40803 4.35601 8.64003C5.72401 7.87203 7.24801 7.48803 8.92801 7.48803C9.86401 7.48803 10.752 7.64403 11.592 7.95603C12.456 8.26803 13.224 8.70003 13.896 9.25203C14.568 9.80403 15.096 10.452 15.48 11.196H15.552V2.86102e-05H18.864V16.992C18.864 19.032 18.444 20.784 17.604 22.248C16.788 23.688 15.672 24.792 14.256 25.56C12.864 26.328 11.268 26.712 9.46801 26.712ZM9.46801 23.868C10.596 23.868 11.616 23.592 12.528 23.04C13.44 22.488 14.16 21.708 14.688 20.7C15.24 19.692 15.516 18.504 15.516 17.136C15.516 15.744 15.24 14.544 14.688 13.536C14.16 12.504 13.44 11.712 12.528 11.16C11.616 10.608 10.584 10.332 9.43201 10.332C8.30401 10.332 7.27201 10.62 6.33601 11.196C5.42401 11.772 4.69201 12.564 4.14001 13.572C3.61201 14.58 3.34801 15.756 3.34801 17.1C3.34801 18.492 3.62401 19.692 4.17601 20.7C4.72801 21.708 5.46001 22.488 6.37201 23.04C7.30801 23.592 8.34001 23.868 9.46801 23.868ZM24.0002 26.28V7.92003H27.3482V26.28H24.0002ZM25.6922 5.00403C25.0922 5.00403 24.5642 4.78803 24.1082 4.35603C23.6762 3.90003 23.4602 3.37203 23.4602 2.77203C23.4602 2.17203 23.6762 1.65603 24.1082 1.22403C24.5642 0.768028 25.0922 0.540028 25.6922 0.540028C26.2922 0.540028 26.8082 0.768028 27.2402 1.22403C27.6962 1.65603 27.9242 2.17203 27.9242 2.77203C27.9242 3.37203 27.6962 3.90003 27.2402 4.35603C26.8082 4.78803 26.2922 5.00403 25.6922 5.00403ZM32.5783 26.28V15.66C32.5783 14.028 32.9383 12.6 33.6583 11.376C34.4023 10.152 35.4223 9.20403 36.7183 8.53203C38.0143 7.83603 39.4903 7.48803 41.1463 7.48803C42.8263 7.48803 44.3023 7.83603 45.5743 8.53203C46.8703 9.20403 47.8783 10.152 48.5983 11.376C49.3423 12.6 49.7143 14.028 49.7143 15.66V26.28H46.4023V15.696C46.4023 14.592 46.1503 13.644 45.6463 12.852C45.1663 12.036 44.5183 11.412 43.7023 10.98C42.9103 10.548 42.0583 10.332 41.1463 10.332C40.2343 10.332 39.3703 10.548 38.5543 10.98C37.7623 11.412 37.1143 12.036 36.6103 12.852C36.1303 13.644 35.8903 14.592 35.8903 15.696V26.28H32.5783ZM64.2968 26.28C62.2808 26.28 60.4928 25.908 58.9328 25.164C57.3728 24.396 56.1488 23.328 55.2608 21.96C54.3968 20.568 53.9648 18.948 53.9648 17.1C53.9648 15.276 54.3368 13.644 55.0808 12.204C55.8248 10.74 56.8568 9.58803 58.1768 8.74803C59.4968 7.90803 61.0328 7.48803 62.7848 7.48803C64.6808 7.48803 66.2528 7.89603 67.5008 8.71203C68.7728 9.52803 69.7208 10.632 70.3448 12.024C70.9688 13.392 71.2808 14.928 71.2808 16.632C71.2808 16.896 71.2688 17.172 71.2448 17.46C71.2448 17.748 71.2208 18 71.1728 18.216H57.4928C57.6128 19.344 57.9848 20.304 58.6088 21.096C59.2328 21.864 60.0248 22.452 60.9848 22.86C61.9688 23.244 63.0488 23.436 64.2248 23.436H69.0128V26.28H64.2968ZM57.4568 15.876H67.9328C67.9328 15.42 67.8848 14.94 67.7888 14.436C67.6928 13.908 67.5248 13.404 67.2848 12.924C67.0448 12.42 66.7208 11.976 66.3128 11.592C65.9288 11.184 65.4368 10.86 64.8368 10.62C64.2608 10.38 63.5768 10.26 62.7848 10.26C61.9448 10.26 61.2008 10.428 60.5528 10.764C59.9288 11.076 59.3888 11.508 58.9328 12.06C58.4768 12.588 58.1288 13.188 57.8888 13.86C57.6488 14.532 57.5048 15.204 57.4568 15.876Z" fill="#1E5AFF"/>
<path d="M75.2521 26.28V23.436H84.0361C84.6121 23.436 85.1041 23.316 85.5121 23.076C85.9441 22.812 86.2681 22.476 86.4841 22.068C86.7001 21.66 86.8081 21.228 86.8081 20.772C86.8081 20.34 86.7121 19.944 86.5201 19.584C86.3281 19.2 86.0281 18.9 85.6201 18.684C85.2361 18.444 84.7681 18.324 84.2161 18.324H80.5081C79.3321 18.324 78.3001 18.132 77.4121 17.748C76.5481 17.34 75.8641 16.752 75.3601 15.984C74.8801 15.216 74.6401 14.28 74.6401 13.176C74.6401 12.24 74.8681 11.376 75.3241 10.584C75.7801 9.79203 76.4161 9.15603 77.2321 8.67603C78.0481 8.17203 78.9841 7.92003 80.0401 7.92003H88.5001V10.764H80.3641C79.6201 10.764 79.0321 10.992 78.6001 11.448C78.1681 11.904 77.9521 12.444 77.9521 13.068C77.9521 13.668 78.1681 14.196 78.6001 14.652C79.0561 15.084 79.6921 15.3 80.5081 15.3H84.0361C85.3561 15.3 86.4601 15.516 87.3481 15.948C88.2601 16.356 88.9441 16.956 89.4001 17.748C89.8801 18.54 90.1201 19.512 90.1201 20.664C90.1201 21.648 89.8801 22.572 89.4001 23.436C88.9201 24.276 88.2481 24.96 87.3841 25.488C86.5441 26.016 85.5601 26.28 84.4321 26.28H75.2521ZM102.12 26.712C100.344 26.712 98.8085 26.292 97.5125 25.452C96.2165 24.588 95.2205 23.424 94.5245 21.96C93.8285 20.496 93.4805 18.876 93.4805 17.1C93.4805 15.3 93.8645 13.68 94.6325 12.24C95.4005 10.776 96.5045 9.62403 97.9445 8.78403C99.3845 7.92003 101.112 7.48803 103.128 7.48803C105.072 7.48803 106.74 7.90803 108.132 8.74803C109.524 9.58803 110.592 10.728 111.336 12.168C112.104 13.608 112.488 15.216 112.488 16.992V26.28H109.14V22.536H109.068C108.708 23.232 108.216 23.904 107.592 24.552C106.992 25.176 106.236 25.692 105.324 26.1C104.412 26.508 103.344 26.712 102.12 26.712ZM102.984 23.868C104.184 23.868 105.24 23.58 106.152 23.004C107.088 22.404 107.808 21.588 108.312 20.556C108.84 19.5 109.104 18.324 109.104 17.028C109.104 15.756 108.852 14.616 108.348 13.608C107.868 12.6 107.172 11.808 106.26 11.232C105.348 10.632 104.28 10.332 103.056 10.332C101.76 10.332 100.644 10.632 99.7085 11.232C98.7965 11.832 98.0885 12.648 97.5845 13.68C97.1045 14.688 96.8645 15.84 96.8645 17.136C96.8645 18.384 97.1045 19.524 97.5845 20.556C98.0645 21.564 98.7605 22.368 99.6725 22.968C100.584 23.568 101.688 23.868 102.984 23.868ZM118.842 26.28V10.764H115.638V7.92003H118.842V5.22003C118.842 3.58803 119.298 2.31603 120.21 1.40403C121.146 0.468028 122.43 2.86102e-05 124.062 2.86102e-05H128.598V2.84403H124.71C123.894 2.84403 123.27 3.07203 122.838 3.52803C122.406 3.98403 122.19 4.62003 122.19 5.43603V7.92003H127.878V10.764H122.19V26.28H118.842ZM139.391 26.28C137.375 26.28 135.587 25.908 134.027 25.164C132.467 24.396 131.243 23.328 130.355 21.96C129.491 20.568 129.059 18.948 129.059 17.1C129.059 15.276 129.431 13.644 130.175 12.204C130.919 10.74 131.951 9.58803 133.271 8.74803C134.591 7.90803 136.127 7.48803 137.879 7.48803C139.775 7.48803 141.347 7.89603 142.595 8.71203C143.867 9.52803 144.815 10.632 145.439 12.024C146.063 13.392 146.375 14.928 146.375 16.632C146.375 16.896 146.363 17.172 146.339 17.46C146.339 17.748 146.315 18 146.267 18.216H132.587C132.707 19.344 133.079 20.304 133.703 21.096C134.327 21.864 135.119 22.452 136.079 22.86C137.063 23.244 138.143 23.436 139.319 23.436H144.107V26.28H139.391ZM132.551 15.876H143.027C143.027 15.42 142.979 14.94 142.883 14.436C142.787 13.908 142.619 13.404 142.379 12.924C142.139 12.42 141.815 11.976 141.407 11.592C141.023 11.184 140.531 10.86 139.931 10.62C139.355 10.38 138.671 10.26 137.879 10.26C137.039 10.26 136.295 10.428 135.647 10.764C135.023 11.076 134.483 11.508 134.027 12.06C133.571 12.588 133.223 13.188 132.983 13.86C132.743 14.532 132.599 15.204 132.551 15.876Z" fill="white"/>
</svg>
