<svg width="196" height="37" viewBox="0 0 196 37" fill="none" xmlns="http://www.w3.org/2000/svg">
<path d="M12.784 36.576C10.928 36.576 9.232 36.288 7.696 35.712C6.16 35.104 4.832 34.224 3.712 33.072C2.592 31.92 1.712 30.544 1.072 28.944C0.464 27.312 0.16 25.488 0.16 23.472C0.16 20.912 0.672 18.704 1.696 16.848C2.752 14.96 4.176 13.504 5.968 12.48C7.792 11.456 9.824 10.944 12.064 10.944C13.312 10.944 14.496 11.152 15.616 11.568C16.768 11.984 17.792 12.56 18.688 13.296C19.584 14.032 20.288 14.896 20.8 15.888H20.896V0.959999H25.312V23.616C25.312 26.336 24.752 28.672 23.632 30.624C22.544 32.544 21.056 34.016 19.168 35.04C17.312 36.064 15.184 36.576 12.784 36.576ZM12.784 32.784C14.288 32.784 15.648 32.416 16.864 31.68C18.08 30.944 19.04 29.904 19.744 28.56C20.48 27.216 20.848 25.632 20.848 23.808C20.848 21.952 20.48 20.352 19.744 19.008C19.04 17.632 18.08 16.576 16.864 15.84C15.648 15.104 14.272 14.736 12.736 14.736C11.232 14.736 9.856 15.12 8.608 15.888C7.392 16.656 6.416 17.712 5.68 19.056C4.976 20.4 4.624 21.968 4.624 23.76C4.624 25.616 4.992 27.216 5.728 28.56C6.464 29.904 7.44 30.944 8.656 31.68C9.904 32.416 11.28 32.784 12.784 32.784ZM32.1603 36V11.52H36.6243V36H32.1603ZM34.4163 7.632C33.6163 7.632 32.9123 7.344 32.3043 6.768C31.7283 6.16 31.4403 5.456 31.4403 4.656C31.4403 3.856 31.7283 3.168 32.3043 2.592C32.9123 1.984 33.6163 1.68 34.4163 1.68C35.2163 1.68 35.9043 1.984 36.4803 2.592C37.0883 3.168 37.3923 3.856 37.3923 4.656C37.3923 5.456 37.0883 6.16 36.4803 6.768C35.9043 7.344 35.2163 7.632 34.4163 7.632ZM43.5978 36V21.84C43.5978 19.664 44.0778 17.76 45.0378 16.128C46.0298 14.496 47.3898 13.232 49.1178 12.336C50.8458 11.408 52.8138 10.944 55.0218 10.944C57.2618 10.944 59.2298 11.408 60.9258 12.336C62.6538 13.232 63.9978 14.496 64.9578 16.128C65.9498 17.76 66.4458 19.664 66.4458 21.84V36H62.0298V21.888C62.0298 20.416 61.6938 19.152 61.0218 18.096C60.3818 17.008 59.5178 16.176 58.4298 15.6C57.3738 15.024 56.2378 14.736 55.0218 14.736C53.8058 14.736 52.6538 15.024 51.5658 15.6C50.5098 16.176 49.6458 17.008 48.9738 18.096C48.3338 19.152 48.0138 20.416 48.0138 21.888V36H43.5978ZM85.8891 36C83.2011 36 80.8171 35.504 78.7371 34.512C76.6571 33.488 75.0251 32.064 73.8411 30.24C72.6891 28.384 72.1131 26.224 72.1131 23.76C72.1131 21.328 72.6091 19.152 73.6011 17.232C74.5931 15.28 75.9691 13.744 77.7291 12.624C79.4891 11.504 81.5371 10.944 83.8731 10.944C86.4011 10.944 88.4971 11.488 90.1611 12.576C91.8571 13.664 93.1211 15.136 93.9531 16.992C94.7851 18.816 95.2011 20.864 95.2011 23.136C95.2011 23.488 95.1851 23.856 95.1531 24.24C95.1531 24.624 95.1211 24.96 95.0571 25.248H76.8171C76.9771 26.752 77.4731 28.032 78.3051 29.088C79.1371 30.112 80.1931 30.896 81.4731 31.44C82.7851 31.952 84.2251 32.208 85.7931 32.208H92.1771V36H85.8891ZM76.7691 22.128H90.7371C90.7371 21.52 90.6731 20.88 90.5451 20.208C90.4171 19.504 90.1931 18.832 89.8731 18.192C89.5531 17.52 89.1211 16.928 88.5771 16.416C88.0651 15.872 87.4091 15.44 86.6091 15.12C85.8411 14.8 84.9291 14.64 83.8731 14.64C82.7531 14.64 81.7611 14.864 80.8971 15.312C80.0651 15.728 79.3451 16.304 78.7371 17.04C78.1291 17.744 77.6651 18.544 77.3451 19.44C77.0251 20.336 76.8331 21.232 76.7691 22.128Z" fill="#1E5AFF"/>
<path d="M100.496 36V32.208H112.208C112.976 32.208 113.632 32.048 114.176 31.728C114.752 31.376 115.184 30.928 115.472 30.384C115.76 29.84 115.904 29.264 115.904 28.656C115.904 28.08 115.776 27.552 115.52 27.072C115.264 26.56 114.864 26.16 114.32 25.872C113.808 25.552 113.184 25.392 112.448 25.392H107.504C105.936 25.392 104.56 25.136 103.376 24.624C102.224 24.08 101.312 23.296 100.64 22.272C100 21.248 99.6801 20 99.6801 18.528C99.6801 17.28 99.9841 16.128 100.592 15.072C101.2 14.016 102.048 13.168 103.136 12.528C104.224 11.856 105.472 11.52 106.88 11.52H118.16V15.312H107.312C106.32 15.312 105.536 15.616 104.96 16.224C104.384 16.832 104.096 17.552 104.096 18.384C104.096 19.184 104.384 19.888 104.96 20.496C105.568 21.072 106.416 21.36 107.504 21.36H112.208C113.968 21.36 115.44 21.648 116.624 22.224C117.84 22.768 118.752 23.568 119.36 24.624C120 25.68 120.32 26.976 120.32 28.512C120.32 29.824 120 31.056 119.36 32.208C118.72 33.328 117.824 34.24 116.672 34.944C115.552 35.648 114.24 36 112.736 36H100.496ZM136.321 36.576C133.953 36.576 131.905 36.016 130.177 34.896C128.449 33.744 127.121 32.192 126.193 30.24C125.265 28.288 124.801 26.128 124.801 23.76C124.801 21.36 125.313 19.2 126.337 17.28C127.361 15.328 128.833 13.792 130.753 12.672C132.673 11.52 134.977 10.944 137.665 10.944C140.257 10.944 142.481 11.504 144.337 12.624C146.193 13.744 147.617 15.264 148.609 17.184C149.633 19.104 150.145 21.248 150.145 23.616V36H145.681V31.008H145.585C145.105 31.936 144.449 32.832 143.617 33.696C142.817 34.528 141.809 35.216 140.593 35.76C139.377 36.304 137.953 36.576 136.321 36.576ZM137.473 32.784C139.073 32.784 140.481 32.4 141.697 31.632C142.945 30.832 143.905 29.744 144.577 28.368C145.281 26.96 145.633 25.392 145.633 23.664C145.633 21.968 145.297 20.448 144.625 19.104C143.985 17.76 143.057 16.704 141.841 15.936C140.625 15.136 139.201 14.736 137.569 14.736C135.841 14.736 134.353 15.136 133.105 15.936C131.889 16.736 130.945 17.824 130.273 19.2C129.633 20.544 129.313 22.08 129.313 23.808C129.313 25.472 129.633 26.992 130.273 28.368C130.913 29.712 131.841 30.784 133.057 31.584C134.273 32.384 135.745 32.784 137.473 32.784ZM158.616 36V15.312H154.344V11.52H158.616V7.92C158.616 5.744 159.224 4.048 160.44 2.832C161.688 1.584 163.4 0.959999 165.576 0.959999H171.624V4.752H166.44C165.352 4.752 164.52 5.056 163.944 5.664C163.368 6.272 163.08 7.12 163.08 8.208V11.52H170.664V15.312H163.08V36H158.616ZM186.014 36C183.326 36 180.942 35.504 178.862 34.512C176.782 33.488 175.15 32.064 173.966 30.24C172.814 28.384 172.238 26.224 172.238 23.76C172.238 21.328 172.734 19.152 173.726 17.232C174.718 15.28 176.094 13.744 177.854 12.624C179.614 11.504 181.662 10.944 183.998 10.944C186.526 10.944 188.622 11.488 190.286 12.576C191.982 13.664 193.246 15.136 194.078 16.992C194.91 18.816 195.326 20.864 195.326 23.136C195.326 23.488 195.31 23.856 195.278 24.24C195.278 24.624 195.246 24.96 195.182 25.248H176.942C177.102 26.752 177.598 28.032 178.43 29.088C179.262 30.112 180.318 30.896 181.598 31.44C182.91 31.952 184.35 32.208 185.918 32.208H192.302V36H186.014ZM176.894 22.128H190.862C190.862 21.52 190.798 20.88 190.67 20.208C190.542 19.504 190.318 18.832 189.998 18.192C189.678 17.52 189.246 16.928 188.702 16.416C188.19 15.872 187.534 15.44 186.734 15.12C185.966 14.8 185.054 14.64 183.998 14.64C182.878 14.64 181.886 14.864 181.022 15.312C180.19 15.728 179.47 16.304 178.862 17.04C178.254 17.744 177.79 18.544 177.47 19.44C177.15 20.336 176.958 21.232 176.894 22.128Z" fill="black"/>
</svg>
